<svg width="80" height="98" viewBox="0 0 80 98" fill="none" xmlns="http://www.w3.org/2000/svg">
<g clip-path="url(#clip0_1_174)">
<path d="M50.7557 65.8495L64.3661 71.9109M64.3661 71.9109L79.3977 78.6109V97.3975H0.602173V78.6109L15.6338 71.9109M64.3661 71.9109V97.3975H15.6338V71.9109M15.6338 71.9109L29.2441 65.8495M54.1644 67.3679V77.2251C54.1644 81.0873 51.0267 84.2264 47.1665 84.2264H32.8334C28.9731 84.2264 25.8355 81.0873 25.8355 77.2251V67.3679M22.9569 33.2772V45.8157C22.9569 55.2271 30.5931 62.867 39.9999 62.867C49.4067 62.867 57.043 55.2271 57.043 45.8157V33.2772H22.9509H22.9569ZM18.2173 44.6468H22.9569V33.2712H18.2173V44.6468ZM57.049 33.2772V44.6528H61.7886V33.2772H57.049ZM65.5645 27.6979H14.4414C13.5922 27.6979 12.9057 28.3787 12.9057 29.2163V31.7589C12.9057 32.5964 13.5862 33.2772 14.4414 33.2772H65.5645C66.4137 33.2772 67.1002 32.5964 67.1002 31.7589V29.2163C67.1002 28.3787 66.4197 27.6979 65.5645 27.6979ZM54.2487 10.0019C51.7253 7.48935 48.5275 5.62756 44.9683 4.73583L43.2219 23.3236H36.778L35.0316 4.73583C26.3053 6.93503 19.8614 14.8461 19.8614 24.2575V27.6919H60.1385V24.2575C60.1385 18.6902 57.8801 13.6531 54.2487 10.0019ZM34.6522 0.602539L35.0376 4.73583L36.784 23.3236H43.2279L44.9743 4.73583L45.3598 0.602539H34.6582H34.6522Z" stroke="black" stroke-width="2" stroke-linecap="round" stroke-linejoin="round"/>
</g>
<defs>
<clipPath id="clip0_1_174">
<rect width="80" height="98" fill="white"/>
</clipPath>
</defs>
</svg>
