<svg width="80" height="94" viewBox="0 0 80 94" fill="none" xmlns="http://www.w3.org/2000/svg">
<g clip-path="url(#clip0_3_388)">
<path d="M51.0947 69.2512C53.6373 73.6155 55.3827 76.4408 55.3827 76.4408C55.3827 76.4408 57.4785 73.0564 60.4439 67.9407M33.5981 34.1688C32.2271 30.3275 31.3876 26.9611 31.3876 24.4844C31.3876 11.2894 42.1199 0.601196 55.3827 0.601196C68.6456 0.601196 79.396 11.2894 79.396 24.4844C79.396 33.1709 69.008 52.9183 61.8994 65.4099C61.3861 66.2936 60.9089 67.1472 60.4499 67.9407M72.3056 24.4904C72.3056 33.79 64.732 41.3283 55.3888 41.3283C46.0456 41.3283 38.472 33.79 38.472 24.4904C38.472 15.1908 46.0456 7.65255 55.3888 7.65255C64.732 7.65255 72.3056 15.1908 72.3056 24.4904ZM53.0636 63.0114H46.1483V93.3989H34.6187V75.7976H19.0367V93.3989H7.51924V63.0114H0.603943L26.8337 34.0666L53.0636 63.0114Z" stroke="black" stroke-width="2" stroke-linecap="round" stroke-linejoin="round"/>
</g>
<defs>
<clipPath id="clip0_3_388">
<rect width="80" height="94" fill="white"/>
</clipPath>
</defs>
</svg>
