<svg width="91" height="87" viewBox="0 0 91 87" fill="none" xmlns="http://www.w3.org/2000/svg">
<g clip-path="url(#clip0_3_386)">
<path d="M0.760261 23.0999H5.4237M0.760261 33.1971H5.4237M0.760261 43.2942H5.4237M0.760261 53.3913H5.4237M0.760261 63.4885H5.4237M0.760261 73.5856H5.4237M34.8411 16.544L30.0759 2.84512L43.6232 7.66365M34.8411 16.544L43.6232 7.66365M34.8411 16.544L74.645 56.7934M43.6232 7.66365L83.4271 47.913M83.4271 47.913L90.4013 54.9652L81.6192 63.8456L74.645 56.7934M83.4271 47.913L74.645 56.7934M0.87999 0.605347L85.7199 86.3947H0.832098C0.305291 86.3947 0.832098 11.665 0.832098 11.665L0.87999 0.605347ZM45.1558 69.4027L17.4684 41.4055C17.4205 51.9748 17.3966 61.7632 17.4026 69.4027H45.1558Z" stroke="black" stroke-width="2" stroke-linecap="round" stroke-linejoin="round"/>
</g>
<defs>
<clipPath id="clip0_3_386">
<rect width="91" height="87" fill="white"/>
</clipPath>
</defs>
</svg>
