<svg width="203" height="84" viewBox="0 0 203 84" fill="none" xmlns="http://www.w3.org/2000/svg">
<g clip-path="url(#clip0_6_38)">
<path d="M33.1691 82.6695H28.7451L25.8397 82.4921L25.6857 81.9377L25.6196 82.4699L23.2205 82.0707C23.0444 82.0264 22.8464 82.0042 22.6703 81.9599L22.054 81.8268L19.897 81.2059L17.762 80.4076L15.3629 79.2101C15.1428 79.0993 14.9007 78.944 14.6586 78.811L11.8633 77.037L10.8948 76.2386C10.6307 76.0169 10.4106 75.8395 10.1905 75.6621C10.1245 75.6621 10.0804 75.6177 10.0364 75.5734L8.40767 74.0655C8.40767 74.0655 8.29762 73.9546 8.27561 73.8881L6.64686 72.0475C6.64686 72.0475 6.47077 71.8258 6.38273 71.6927L5.19418 70.0961C4.99609 69.8078 4.77599 69.4974 4.5779 69.1647L4.22573 68.6547L3.10321 66.6811C3.10321 66.6811 3.05919 66.5702 3.03718 66.5037L2.15678 64.6188C2.15678 64.6188 2.11276 64.5301 2.11276 64.4857C1.84863 63.8427 1.62853 63.1996 1.40843 62.5343C1.36441 62.49 1.3424 62.4234 1.3424 62.3791L1.27637 62.113C1.27637 62.113 1.21034 61.9134 1.18833 61.8025L0.770135 60.2503C0.770135 60.2503 0.770135 60.1616 0.770135 60.1172L0.726114 59.962C0.638074 59.5406 0.550033 59.1193 0.461992 58.698L0.329931 58.0771C0.329931 58.0771 0.329931 57.9662 0.329931 57.9219L0.17586 56.7466C0.153849 56.547 0.131839 56.3252 0.109829 56.1257L0.0658087 55.793L-0.0222321 53.509L0.0217883 41.4234C0.0217883 41.1352 0.2639 40.8912 0.550033 40.8912H32.6189V0.576557C32.6189 0.288278 32.861 0.0443497 33.1471 0.0443497H66.1404C66.4265 0.0443497 66.6686 0.288278 66.6686 0.576557L66.6246 53.6864C66.6246 53.6864 66.6246 53.7307 66.6246 53.7529C66.6246 53.8194 66.6246 53.8638 66.6246 53.9303L66.4926 56.2365C66.4706 56.5248 66.4265 56.7909 66.3825 57.0792L66.1184 58.7867C66.0304 59.208 65.9643 59.6293 65.8543 60.0507C65.8543 60.095 65.8543 60.1616 65.8323 60.2059L65.6562 60.7825C65.3921 61.8025 65.0619 62.8448 64.6877 63.8205L64.4676 64.4192C64.4676 64.4192 64.4676 64.5301 64.4236 64.5744L64.3136 64.8184C64.3136 64.8184 64.2475 64.9736 64.2035 65.0623L63.4992 66.5702C63.4992 66.5702 63.4331 66.6811 63.3891 66.7254C63.169 67.1468 62.9269 67.6346 62.6628 68.0781L62.3767 68.5882L61.9585 69.2312C61.7604 69.5417 61.5623 69.8522 61.3422 70.1626L61.1221 70.4731L60.1096 71.7814C60.1096 71.7814 59.9555 71.981 59.8895 72.0697L59.7354 72.2693C59.7354 72.2693 59.6474 72.358 59.6034 72.3801C59.0971 72.9789 58.6349 73.4889 58.1947 73.9324C58.1947 73.9546 58.1507 73.9768 58.1287 74.0211L56.3679 75.6399C56.1258 75.8395 55.8837 76.0391 55.6415 76.2386L54.7831 76.9482C54.7831 76.9482 54.6731 77.037 54.6071 77.037L54.3209 77.2365C54.0348 77.4361 53.7267 77.6579 53.4185 77.8574L52.9123 78.2122C52.9123 78.2122 52.8022 78.2788 52.7362 78.3009L52.6041 78.3675C52.0539 78.7001 51.4816 79.0327 50.8873 79.3432L48.9064 80.3189C48.9064 80.3189 48.7964 80.3632 48.7303 80.3632L46.4413 81.2281C46.4413 81.2281 46.2652 81.2724 46.1772 81.3168L44.0202 81.8933C43.712 81.9599 43.3599 82.0264 43.0297 82.0929L42.3694 82.226C42.3694 82.226 42.2593 82.226 42.2153 82.226L41.0048 82.4034C40.8727 82.4034 40.7626 82.4477 40.6306 82.4477L40.0803 82.5142L37.8353 82.6029H33.0811L33.1691 82.6695Z" fill="black"/>
<path d="M106.771 0C106.771 0 106.639 0 106.573 0.0443506H74.0863C73.8002 0.0443506 73.558 0.37698 73.558 0.665259V82.1373C73.558 82.4256 73.8002 82.6695 74.0863 82.6695H96.3386C96.6247 82.6695 96.8668 82.4256 96.8668 82.1373V61.5143H106.859L108.994 61.4256L109.303 61.3812C109.611 61.359 109.919 61.3147 110.205 61.2703L113.463 60.7381L115.201 60.2281L115.355 60.1837L116.896 59.6294C117.755 59.2967 118.591 58.9419 119.383 58.5428L119.934 58.2767C120.396 58.0327 120.858 57.7666 121.298 57.5227L122.245 56.9461C122.619 56.7022 122.971 56.4805 123.323 56.2365L124.358 55.4382C124.71 55.1721 125.062 54.8838 125.392 54.5956C125.392 54.5956 125.502 54.5069 125.502 54.4847C126.228 53.8416 126.955 53.1542 127.659 52.4002L128.628 51.358L128.826 51.0919C128.98 50.9145 129.134 50.7149 129.266 50.5153L130.124 49.3622C130.476 48.8743 130.807 48.3643 131.115 47.8543L131.335 47.4773C131.665 46.9229 131.973 46.3907 132.259 45.8363C132.259 45.8363 132.325 45.7255 132.325 45.7033L132.457 45.3928C134.46 41.3347 135.473 36.9884 135.473 32.509V28.9831C135.473 12.9947 122.553 0 106.705 0H106.771Z" fill="black"/>
<path d="M143.462 75.1299C143.462 73.1119 144.167 71.4044 145.597 69.9852C147.006 68.566 148.723 67.8342 150.704 67.8342H158.407C158.914 67.8342 159.354 68.0116 159.728 68.3886C160.102 68.7656 160.278 69.2091 160.278 69.7191C160.278 70.2291 160.102 70.6727 159.728 71.0496C159.354 71.4266 158.914 71.604 158.407 71.604H150.704C149.757 71.604 148.921 71.9588 148.239 72.6462C147.556 73.3337 147.204 74.1542 147.204 75.1299V75.1742C147.204 76.15 147.556 76.9704 148.239 77.6579C148.921 78.3453 149.757 78.7001 150.704 78.7001H158.407C158.914 78.7001 159.354 78.8775 159.728 79.2545C160.102 79.6315 160.278 80.075 160.278 80.585C160.278 81.095 160.102 81.5385 159.728 81.9155C159.354 82.2925 158.914 82.4699 158.407 82.4699H138.708C138.18 82.4699 137.74 82.2925 137.388 81.9155C137.013 81.5385 136.837 81.095 136.837 80.585C136.837 80.075 137.013 79.6093 137.388 79.2545C137.762 78.8775 138.202 78.7001 138.708 78.7001H144.387C143.793 77.6135 143.484 76.4382 143.484 75.1742V75.1299H143.462Z" fill="black"/>
<path d="M160.256 58.2101C160.256 60.2724 159.53 62.0243 158.077 63.4879C156.625 64.9514 154.886 65.6832 152.839 65.6832H150.462C148.415 65.6832 146.676 64.9514 145.223 63.4879C143.771 62.0243 143.044 60.2724 143.044 58.2101V58.1658C143.044 56.1035 143.771 54.3516 145.223 52.8881C146.676 51.4245 148.437 50.6927 150.462 50.6927H152.839C154.886 50.6927 156.625 51.4245 158.077 52.8881C159.53 54.3516 160.256 56.1257 160.256 58.1658V58.2101ZM146.852 58.2101C146.852 59.208 147.204 60.0507 147.908 60.7603C148.613 61.4699 149.449 61.8247 150.44 61.8247H152.817C153.807 61.8247 154.644 61.4699 155.348 60.7603C156.052 60.0507 156.404 59.1859 156.404 58.2101V58.1658C156.404 57.1679 156.052 56.3252 155.348 55.6156C154.644 54.906 153.785 54.5512 152.817 54.5512H150.44C149.449 54.5512 148.613 54.906 147.908 55.6156C147.204 56.3252 146.852 57.1679 146.852 58.1658V58.2101Z" fill="black"/>
<path d="M143.044 30.7349C143.044 28.7392 143.727 27.076 145.113 25.7233C146.478 24.3485 148.173 23.661 150.176 23.661H158.341C158.87 23.661 159.332 23.8606 159.684 24.2376C160.058 24.6146 160.256 25.0581 160.256 25.5903C160.256 26.1225 160.058 26.5882 159.684 26.943C159.31 27.32 158.87 27.5195 158.341 27.5195H150.176C149.207 27.5195 148.437 27.83 147.82 28.4287C147.182 29.0275 146.874 29.8036 146.874 30.7349V30.7793C146.874 31.7107 147.182 32.4868 147.82 33.0855C148.437 33.6843 149.229 33.9947 150.176 33.9947H158.341C158.87 33.9947 159.332 34.1721 159.684 34.5491C160.058 34.9261 160.256 35.3918 160.256 35.9018C160.256 36.4118 160.058 36.8997 159.684 37.2767C159.31 37.6536 158.87 37.831 158.341 37.831H150.176C149.207 37.831 148.437 38.1415 147.82 38.7402C147.182 39.339 146.874 40.1151 146.874 41.0465V41.0908C146.874 42.0222 147.182 42.7983 147.82 43.397C148.437 43.9958 149.229 44.3062 150.176 44.3062H158.341C158.87 44.3062 159.332 44.5058 159.684 44.8828C160.058 45.2598 160.256 45.7033 160.256 46.2355C160.256 46.7677 160.058 47.2334 159.684 47.5882C159.31 47.9651 158.87 48.1647 158.341 48.1647H150.176C148.173 48.1647 146.5 47.4773 145.113 46.1024C143.727 44.7497 143.044 43.0644 143.044 41.0908V41.0465C143.044 39.0063 143.771 37.2767 145.245 35.9018C143.771 34.5269 143.044 32.8194 143.044 30.7793V30.7349Z" fill="black"/>
<path d="M160.256 13.9926C160.256 16.0549 159.53 17.8068 158.077 19.2703C156.625 20.7339 154.864 21.4657 152.839 21.4657H150.44C148.327 21.4657 146.566 20.8004 145.135 19.4477C143.727 18.095 143 16.4097 143 14.3918V14.3474C143 12.3295 143.705 10.6441 145.135 9.29145C146.566 7.93875 148.327 7.27349 150.44 7.27349H151.628C152.156 7.27349 152.619 7.4509 152.993 7.82788C153.367 8.20486 153.565 8.67054 153.565 9.20275V17.5185C154.401 17.3411 155.062 16.9419 155.612 16.2767C156.162 15.6114 156.426 14.8574 156.426 13.9926V13.9483C156.426 12.7286 155.942 11.7529 154.974 11.0433C154.556 10.7107 154.291 10.2893 154.203 9.7793C154.137 9.2471 154.247 8.75924 154.556 8.33791C154.864 7.91658 155.304 7.65047 155.832 7.58395C156.36 7.49525 156.823 7.6283 157.241 7.93875C158.187 8.64836 158.914 9.5132 159.464 10.5776C159.992 11.642 160.256 12.773 160.256 13.9483V13.9926ZM149.691 11.1985C148.877 11.3316 148.217 11.642 147.71 12.1521C147.138 12.7286 146.852 13.4604 146.852 14.3474V14.3918C146.852 15.2788 147.138 16.0106 147.71 16.5871C148.217 17.0971 148.877 17.4076 149.691 17.5407V11.1985Z" fill="black"/>
<path d="M157.439 0.133053C158.231 0.133053 158.892 0.399156 159.42 0.953539C159.97 1.50792 160.234 2.17318 160.234 2.97149C160.234 3.7698 159.97 4.43506 159.42 4.96727C158.87 5.52165 158.209 5.78775 157.439 5.78775C156.669 5.78775 156.008 5.52165 155.48 4.96727C154.952 4.41288 154.666 3.74763 154.666 2.97149C154.666 2.19536 154.93 1.50792 155.48 0.953539C156.008 0.399156 156.669 0.133053 157.439 0.133053Z" fill="#FF0000"/>
<path d="M174.431 52.622V59.8289H173.704V59.4963C173.198 59.7846 172.692 59.9398 172.186 59.9398C171.922 59.9398 171.679 59.8955 171.481 59.8289C171.283 59.7624 171.107 59.6515 170.931 59.4741C170.579 59.1193 170.403 58.4541 170.403 57.4784C170.403 56.5026 170.557 55.8152 170.887 55.3717C171.217 54.9504 171.746 54.7286 172.494 54.7286C172.868 54.7286 173.286 54.773 173.726 54.8617V52.6441H174.453L174.431 52.622ZM171.834 59.1859C171.944 59.2302 172.098 59.2524 172.296 59.2524C172.494 59.2524 172.692 59.2302 172.934 59.1637C173.176 59.0971 173.352 59.0306 173.484 58.9863L173.682 58.8976V55.5048C173.264 55.4161 172.868 55.3939 172.494 55.3939C171.988 55.3939 171.635 55.5491 171.437 55.8817C171.239 56.2144 171.129 56.7022 171.129 57.3896C171.129 58.1658 171.239 58.6758 171.481 58.9641C171.591 59.0971 171.701 59.1858 171.812 59.2302L171.834 59.1859Z" fill="black"/>
<path d="M179.251 59.208H179.537V59.7624C178.789 59.8733 178.128 59.9176 177.6 59.9176C176.874 59.9176 176.368 59.7181 176.082 59.2967C175.795 58.8754 175.641 58.2323 175.641 57.3453C175.641 55.5934 176.324 54.7064 177.71 54.7064C178.371 54.7064 178.877 54.8838 179.207 55.283C179.537 55.66 179.713 56.2587 179.713 57.057L179.669 57.6336H176.39C176.39 58.188 176.478 58.6093 176.676 58.8754C176.874 59.1415 177.226 59.2745 177.71 59.2745C178.194 59.2745 178.701 59.2745 179.229 59.208H179.251ZM178.987 57.0348C178.987 56.4139 178.899 55.9926 178.701 55.7265C178.503 55.4604 178.195 55.3495 177.754 55.3495C177.314 55.3495 176.984 55.4826 176.764 55.7487C176.544 56.0148 176.434 56.4361 176.412 57.0348H179.009H178.987Z" fill="black"/>
<path d="M182.464 55.3939C181.738 55.3939 181.386 55.66 181.386 56.1478C181.386 56.3918 181.474 56.547 181.628 56.6357C181.804 56.7244 182.178 56.8353 182.751 56.9461C183.345 57.057 183.763 57.1901 184.005 57.3896C184.247 57.567 184.379 57.9219 184.379 58.4319C184.379 58.9419 184.225 59.3189 183.895 59.5628C183.565 59.8068 183.081 59.9176 182.464 59.9176C182.046 59.9176 181.562 59.8733 181.012 59.7846L180.704 59.7402L180.748 59.0971C181.496 59.208 182.068 59.2745 182.464 59.2745C182.861 59.2745 183.147 59.208 183.345 59.0971C183.543 58.9641 183.653 58.7645 183.653 58.4762C183.653 58.188 183.565 57.9884 183.389 57.8775C183.213 57.7666 182.839 57.6779 182.266 57.5892C181.672 57.5005 181.276 57.3675 181.012 57.1679C180.748 56.9683 180.638 56.6579 180.638 56.17C180.638 55.6822 180.814 55.3273 181.144 55.0834C181.474 54.8395 181.914 54.7286 182.42 54.7286C182.817 54.7286 183.323 54.773 183.939 54.8617L184.225 54.906V55.5491C183.477 55.4382 182.883 55.3939 182.464 55.3939Z" fill="black"/>
<path d="M185.524 53.6864V52.8215H186.272V53.6864H185.524ZM185.524 59.8289V54.8173H186.272V59.8289H185.524Z" fill="black"/>
<path d="M189.618 62.1795C188.825 62.1795 188.275 62.0686 187.945 61.8469C187.637 61.6251 187.483 61.226 187.483 60.6494C187.483 60.3833 187.549 60.1616 187.659 59.9842C187.769 59.8068 187.989 59.6294 188.275 59.4076C188.099 59.2745 187.989 59.0528 187.989 58.7202C187.989 58.6093 188.077 58.3875 188.231 58.0771L188.319 57.9219C187.791 57.6779 187.527 57.1679 187.527 56.4139C187.527 55.2608 188.143 54.7064 189.398 54.7064C189.706 54.7064 190.014 54.7508 190.278 54.7951H190.432H191.907V55.4382H190.96C191.181 55.6378 191.291 55.9704 191.291 56.4139C191.291 57.0348 191.137 57.4783 190.828 57.7223C190.52 57.9662 190.036 58.0993 189.376 58.0993C189.2 58.0993 189.024 58.0993 188.891 58.0549C188.781 58.3432 188.715 58.5428 188.715 58.6315C188.715 58.831 188.781 58.9641 188.913 59.0084C189.046 59.0528 189.42 59.075 190.058 59.075C190.696 59.075 191.159 59.1637 191.423 59.3632C191.709 59.5628 191.841 59.962 191.841 60.5385C191.841 61.6029 191.115 62.1352 189.64 62.1352L189.618 62.1795ZM188.231 60.6051C188.231 60.9599 188.319 61.2038 188.517 61.3368C188.715 61.4699 189.068 61.5364 189.596 61.5364C190.124 61.5364 190.498 61.4699 190.74 61.3147C190.96 61.1594 191.092 60.9155 191.092 60.5829C191.092 60.2503 191.004 60.0285 190.85 59.9176C190.674 59.8068 190.366 59.7624 189.882 59.7624L188.803 59.7181C188.583 59.8733 188.429 60.0285 188.363 60.1394C188.297 60.2503 188.253 60.4055 188.253 60.6051H188.231ZM188.297 56.4361C188.297 56.8353 188.385 57.1014 188.561 57.2788C188.737 57.4562 189.024 57.5227 189.442 57.5227C189.86 57.5227 190.124 57.434 190.3 57.2788C190.476 57.1014 190.564 56.8353 190.564 56.4361C190.564 56.037 190.476 55.7487 190.3 55.5934C190.124 55.416 189.838 55.3495 189.442 55.3495C189.046 55.3495 188.737 55.4382 188.561 55.6156C188.385 55.793 188.297 56.0591 188.297 56.4583V56.4361Z" fill="black"/>
<path d="M193.558 59.8289H192.809V54.8173H193.536V55.1721C194.064 54.8617 194.592 54.7286 195.076 54.7286C195.737 54.7286 196.177 54.906 196.419 55.2608C196.639 55.6156 196.771 56.2587 196.771 57.1901V59.8289H196.045V57.2122C196.045 56.5248 195.979 56.037 195.847 55.793C195.715 55.5269 195.428 55.416 194.966 55.416C194.746 55.416 194.526 55.4382 194.284 55.5048C194.042 55.5713 193.866 55.6378 193.734 55.6822L193.536 55.7709V59.8289H193.558Z" fill="black"/>
<path d="M172.472 66.7476C172.692 66.7476 173.066 66.792 173.594 66.8585H173.836L173.814 67.5016C173.286 67.4351 172.89 67.4129 172.648 67.4129C172.076 67.4129 171.701 67.5459 171.503 67.812C171.305 68.0781 171.195 68.5882 171.195 69.32C171.195 70.0517 171.283 70.5618 171.481 70.8501C171.679 71.1383 172.054 71.2714 172.67 71.2714L173.836 71.1827V71.8036C173.242 71.8923 172.78 71.9366 172.472 71.9366C171.701 71.9366 171.151 71.7371 170.865 71.3379C170.579 70.9387 170.425 70.2513 170.425 69.2978C170.425 68.3442 170.579 67.679 170.909 67.302C171.217 66.925 171.768 66.7254 172.494 66.7254L172.472 66.7476Z" fill="black"/>
<path d="M174.673 69.3421C174.673 68.4329 174.827 67.7677 175.157 67.3464C175.487 66.9472 176.038 66.7254 176.808 66.7254C177.578 66.7254 178.128 66.925 178.459 67.3464C178.789 67.7455 178.943 68.4108 178.943 69.3421C178.943 70.2735 178.789 70.9166 178.481 71.3379C178.172 71.7592 177.622 71.9588 176.808 71.9588C175.993 71.9588 175.443 71.7592 175.135 71.3379C174.827 70.9166 174.673 70.2513 174.673 69.3421ZM175.443 69.32C175.443 70.0517 175.531 70.5618 175.707 70.8501C175.883 71.1383 176.258 71.2936 176.808 71.2936C177.358 71.2936 177.732 71.1383 177.908 70.8501C178.084 70.5618 178.172 70.0517 178.172 69.32C178.172 68.5882 178.084 68.0781 177.886 67.812C177.688 67.5459 177.336 67.3907 176.808 67.3907C176.28 67.3907 175.927 67.5238 175.729 67.812C175.531 68.1003 175.443 68.5882 175.443 69.32Z" fill="black"/>
<path d="M180.88 71.8701H180.131V66.8585H180.858V67.2133C181.364 66.9028 181.848 66.7698 182.31 66.7698C182.927 66.7698 183.367 66.9472 183.609 67.2798C183.829 67.1468 184.115 67.0359 184.467 66.925C184.82 66.8141 185.128 66.7698 185.392 66.7698C186.052 66.7698 186.492 66.9472 186.734 67.302C186.955 67.6568 187.087 68.2999 187.087 69.2313V71.8701H186.338V69.2534C186.338 68.566 186.272 68.0781 186.14 67.8342C186.008 67.5681 185.722 67.4572 185.304 67.4572C185.084 67.4572 184.864 67.4794 184.621 67.5459C184.379 67.6125 184.203 67.679 184.093 67.7233L183.895 67.812C183.983 68.0338 184.027 68.5216 184.027 69.2756V71.8923H183.279V69.2978C183.279 68.566 183.213 68.0781 183.081 67.8342C182.949 67.5903 182.663 67.4572 182.222 67.4572C182.002 67.4572 181.782 67.4794 181.562 67.5459C181.342 67.6125 181.166 67.679 181.056 67.7233L180.88 67.812V71.8923V71.8701Z" fill="black"/>
<path d="M189.42 67.5016V71.8701H188.671V67.5016H188.033V66.8585H188.671V66.415C188.671 65.7054 188.759 65.2175 188.979 64.9736C189.178 64.7075 189.53 64.5966 190.014 64.5966L191.026 64.6631V65.2841C190.652 65.2841 190.344 65.2841 190.102 65.2841C189.86 65.2841 189.684 65.3728 189.574 65.528C189.464 65.6832 189.42 65.9937 189.42 66.4593V66.9029H190.872V67.5459H189.42V67.5016Z" fill="black"/>
<path d="M191.445 69.3421C191.445 68.4329 191.599 67.7677 191.929 67.3464C192.259 66.925 192.809 66.7254 193.58 66.7254C194.35 66.7254 194.9 66.925 195.23 67.3464C195.561 67.7677 195.715 68.4108 195.715 69.3421C195.715 70.2735 195.561 70.9166 195.252 71.3379C194.944 71.7592 194.394 71.9588 193.58 71.9588C192.765 71.9588 192.215 71.7592 191.907 71.3379C191.599 70.9166 191.445 70.2513 191.445 69.3421ZM192.215 69.32C192.215 70.0517 192.303 70.5618 192.479 70.8501C192.655 71.1383 193.029 71.2936 193.58 71.2936C194.13 71.2936 194.504 71.1383 194.68 70.8501C194.856 70.5618 194.944 70.0517 194.944 69.32C194.944 68.5882 194.856 68.0781 194.658 67.812C194.46 67.5459 194.108 67.3907 193.58 67.3907C193.051 67.3907 192.699 67.5238 192.501 67.812C192.303 68.1003 192.215 68.5882 192.215 69.32Z" fill="black"/>
<path d="M196.925 71.8701V66.8585H197.652V67.5459C198.224 67.1468 198.84 66.8807 199.478 66.7476V67.5016C199.192 67.5459 198.906 67.6346 198.598 67.7455C198.29 67.8564 198.07 67.9673 197.916 68.056L197.674 68.189V71.8701H196.925Z" fill="black"/>
<path d="M202.934 67.5016H201.349V69.8965C201.349 70.4731 201.393 70.85 201.481 71.0274C201.569 71.2049 201.767 71.2936 202.076 71.2936L202.956 71.227L203 71.8479C202.56 71.9145 202.208 71.9588 201.988 71.9588C201.459 71.9588 201.107 71.8258 200.909 71.5818C200.711 71.3157 200.601 70.8501 200.601 70.1183V67.4794H199.897V66.8363H200.601V65.3062H201.327V66.8363H202.912V67.4794L202.934 67.5016Z" fill="black"/>
<path d="M170.139 78.8775H170.931L172.098 83.246H172.472L173.682 78.8775H174.453L173.044 83.8891H171.547L170.139 78.8775Z" fill="black"/>
<path d="M178.833 80.3854V82.9578C178.833 83.2017 179.053 83.3569 179.405 83.4013V84C178.855 84 178.459 83.8669 178.194 83.6008C177.6 83.8669 177.006 84 176.412 84C175.949 84 175.597 83.8669 175.377 83.6008C175.157 83.3347 175.025 82.9578 175.025 82.4699C175.025 81.982 175.157 81.6272 175.399 81.3833C175.641 81.1616 176.037 81.0063 176.544 80.962L178.106 80.8068V80.3854C178.106 80.0528 178.04 79.8089 177.886 79.6536C177.732 79.4984 177.534 79.4319 177.292 79.4319C176.764 79.4319 176.214 79.4541 175.641 79.5206H175.333L175.311 78.9884C176.038 78.8332 176.676 78.7666 177.248 78.7666C177.82 78.7666 178.217 78.8997 178.481 79.1658C178.745 79.4319 178.855 79.831 178.855 80.3854H178.833ZM175.773 82.4255C175.773 83.0465 176.015 83.3569 176.522 83.3569C176.984 83.3569 177.424 83.2682 177.864 83.1352L178.084 83.0465V81.3833L176.61 81.5164C176.324 81.5385 176.104 81.6272 175.971 81.7825C175.839 81.9377 175.773 82.1373 175.773 82.4255Z" fill="black"/>
<path d="M180.352 83.8891V76.6822H181.1V83.8891H180.352Z" fill="black"/>
<path d="M185.7 78.8775H186.448V83.8891H185.7V83.5343C185.194 83.8448 184.71 83.9778 184.225 83.9778C183.543 83.9778 183.103 83.8004 182.883 83.4456C182.663 83.0908 182.553 82.4256 182.553 81.472V78.8553H183.301V81.472C183.301 82.2038 183.367 82.6917 183.499 82.9356C183.631 83.1795 183.917 83.3126 184.357 83.3126C184.577 83.3126 184.798 83.2904 185.018 83.2239C185.238 83.1573 185.414 83.0908 185.546 83.0465L185.722 82.9578V78.8775H185.7Z" fill="black"/>
<path d="M191.269 83.2682H191.555V83.8226C190.806 83.9335 190.146 83.9778 189.618 83.9778C188.891 83.9778 188.385 83.7782 188.099 83.3569C187.813 82.9356 187.659 82.2925 187.659 81.4055C187.659 79.6536 188.341 78.7666 189.728 78.7666C190.388 78.7666 190.894 78.944 191.225 79.3432C191.555 79.7202 191.731 80.3189 191.731 81.1172L191.687 81.6938H188.407C188.407 82.2482 188.495 82.6695 188.693 82.9356C188.891 83.2017 189.244 83.3347 189.728 83.3347C190.212 83.3347 190.718 83.3347 191.247 83.2682H191.269ZM191.004 81.095C191.004 80.4741 190.916 80.0528 190.718 79.7867C190.52 79.5206 190.212 79.4097 189.772 79.4097C189.332 79.4097 189.002 79.5428 188.781 79.8089C188.561 80.075 188.451 80.4963 188.429 81.095H191.026H191.004Z" fill="black"/>
</g>
<defs>
<clipPath id="clip0_6_38">
<rect width="203" height="84" fill="white"/>
</clipPath>
</defs>
</svg>
